<?xml version="1.0" encoding="UTF-8"?>
<svg version="1.1" xmlns="http://www.w3.org/2000/svg" width="574" height="574">
<path d="M0 0 C9.0244163 7.22188929 14.69680143 16.59131264 16.0078125 28.203125 C16.38336146 39.56974015 13.88562352 49.08586013 6.4921875 57.84375 C3.18588543 61.32989277 -0.29203743 64.57245893 -4.43286133 67.03759766 C-7.0567853 69.4355772 -6.96062141 71.00695501 -7.125 74.5 C-7.18171875 75.49386719 -7.2384375 76.48773438 -7.296875 77.51171875 C-7.33554687 78.65060547 -7.33554687 78.65060547 -7.375 79.8125 C-6.54600945 79.79917633 -6.54600945 79.79917633 -5.70027161 79.7855835 C0.05851892 79.69700094 5.81711551 79.63672079 11.57641602 79.59277344 C13.7249335 79.57267414 15.8733964 79.54539007 18.02172852 79.51074219 C21.11227905 79.46215087 24.20210555 79.43951421 27.29296875 79.421875 C28.25148239 79.40122986 29.20999603 79.38058472 30.19755554 79.35931396 C34.53677118 79.35785822 36.94482776 79.39348503 40.70825195 81.71191406 C43.95991867 85.27545252 43.89659203 87.89022518 43.8515625 92.55078125 C43.54766365 95.58453013 42.53451945 97.46232222 40.625 99.8125 C38.2729994 100.9885003 36.88765599 100.93334541 34.26708984 100.92602539 C32.91591568 100.92591209 32.91591568 100.92591209 31.53744507 100.92579651 C30.56344757 100.92063522 29.58945007 100.91547394 28.5859375 100.91015625 C27.58994537 100.9087413 26.59395325 100.90732635 25.56777954 100.90586853 C22.37848947 100.90025936 19.18926894 100.8877053 16 100.875 C13.84114685 100.86998618 11.68229259 100.86542307 9.5234375 100.86132812 C4.2239345 100.85028695 -1.07552778 100.83353988 -6.375 100.8125 C-6.33772078 118.6941914 -6.27769566 136.57565801 -6.19109726 154.45717812 C-6.1514037 162.76116862 -6.1189623 171.06506568 -6.10400391 179.36914062 C-6.09093689 186.61276143 -6.06384467 193.85617581 -6.02038693 201.0996803 C-5.99788474 204.9298627 -5.98208249 208.75979157 -5.98311615 212.59004593 C-5.9838695 216.20666212 -5.96565307 219.82272028 -5.93383217 223.43919182 C-5.92145726 225.37592065 -5.92834428 227.31274379 -5.93614197 229.24949646 C-5.76471169 243.89775737 -1.95039577 257.66245416 8.6875 268.125 C16.69231844 274.7353442 25.98772729 277.70583469 36.3203125 277.22265625 C60.20563957 274.2581653 79.14434139 259.29315861 95.625 242.8125 C89.685 241.1625 83.745 239.5125 77.625 237.8125 C77.625 236.4925 77.625 235.1725 77.625 233.8125 C79.4738316 232.00095576 81.28167656 230.46029847 83.3125 228.875 C90.05239457 223.35649433 96.27635225 217.40459972 102.4375 211.25 C103.74303833 209.95751343 103.74303833 209.95751343 105.07495117 208.63891602 C113.06284137 200.61763226 120.27394407 192.0354187 126.75 182.75 C127.1610498 182.16782715 127.57209961 181.5856543 127.99560547 180.98583984 C129.2096127 179.26430292 130.41789555 177.53888141 131.625 175.8125 C132.7078125 174.27142578 132.7078125 174.27142578 133.8125 172.69921875 C135.42092182 170.40656911 137.02537837 168.111294 138.625 165.8125 C141.8989571 168.43353118 142.59483675 171.28190715 143.6875 175.25 C144.16896484 176.94962891 144.16896484 176.94962891 144.66015625 178.68359375 C152.28565918 209.69135862 148.08422075 240.5483141 131.8046875 267.8671875 C127.68722723 274.01465144 122.67857967 279.42659877 117.625 284.8125 C116.635 284.4825 115.645 284.1525 114.625 283.8125 C113.73364258 281.86303711 113.73364258 281.86303711 113.01953125 279.33984375 C112.62797852 277.99116211 112.62797852 277.99116211 112.22851562 276.61523438 C111.83696289 275.19694336 111.83696289 275.19694336 111.4375 273.75 C111.02854492 272.3259082 111.02854492 272.3259082 110.61132812 270.87304688 C109.93804553 268.52246377 109.27652717 266.16918853 108.625 263.8125 C107.965 263.8125 107.305 263.8125 106.625 263.8125 C105.36088848 265.28729678 104.16359807 266.8196727 103 268.375 C99.85137725 272.41271227 96.65811154 275.73223002 92.7265625 278.98828125 C90.37141981 281.03261514 88.27362975 283.23998644 86.125 285.5 C69.73923094 301.98568228 48.38358333 313.67173805 27.62890625 323.765625 C18.51715048 328.20215881 9.96842407 333.05245836 1.625 338.8125 C0.60792969 339.50988281 -0.40914062 340.20726562 -1.45703125 340.92578125 C-9.59794718 346.76206043 -16.46828064 353.60500415 -23.375 360.8125 C-24.695 360.1525 -26.015 359.4925 -27.375 358.8125 C-27.375 358.1525 -27.375 357.4925 -27.375 356.8125 C-27.93960938 356.57917969 -28.50421875 356.34585937 -29.0859375 356.10546875 C-31.93073289 354.49859627 -33.76280677 352.50429508 -36 350.125 C-40.7574492 345.27699906 -45.68368497 341.48630552 -51.375 337.8125 C-52.14585937 337.28527344 -52.91671875 336.75804687 -53.7109375 336.21484375 C-64.20246697 329.21497472 -75.68739737 323.38373098 -87.10546875 318.04296875 C-112.98205428 305.83119899 -139.08426309 285.74547737 -156.375 262.8125 C-156.62407104 263.69772339 -156.62407104 263.69772339 -156.87817383 264.60083008 C-157.6377816 267.27855945 -158.41244535 269.95170277 -159.1875 272.625 C-159.44853516 273.55376953 -159.70957031 274.48253906 -159.97851562 275.43945312 C-160.23955078 276.33212891 -160.50058594 277.22480469 -160.76953125 278.14453125 C-161.00518799 278.96671143 -161.24084473 279.7888916 -161.48364258 280.63598633 C-162.43723325 282.96446095 -163.48585462 284.18169929 -165.375 285.8125 C-188.4154303 262.24295752 -196.98612951 235.30650882 -196.6640625 202.61328125 C-196.31814467 190.19692767 -193.46271483 178.48651745 -189.375 166.8125 C-185.56689453 167.56103516 -185.56689453 167.56103516 -183.83984375 169.82421875 C-183.33582031 170.70722656 -182.83179688 171.59023438 -182.3125 172.5 C-175.92121312 183.02923543 -168.00106531 192.35942966 -159.63671875 201.3671875 C-157.6845112 203.4778644 -155.80193722 205.62477557 -153.9375 207.8125 C-147.03748886 215.73774864 -139.42183597 223.06297528 -131.375 229.8125 C-130.77300781 230.31910156 -130.17101562 230.82570313 -129.55078125 231.34765625 C-128.16369396 232.50841228 -126.77017645 233.66147943 -125.375 234.8125 C-125.705 235.8025 -126.035 236.7925 -126.375 237.8125 C-129.140625 238.98046875 -129.140625 238.98046875 -132.625 240 C-133.76453125 240.34417969 -134.9040625 240.68835938 -136.078125 241.04296875 C-139.00409513 241.72592623 -141.3926081 241.97507399 -144.375 241.8125 C-143.88 242.26625 -143.385 242.72 -142.875 243.1875 C-141.375 244.8125 -141.375 244.8125 -141.375 246.8125 C-140.385 247.1425 -139.395 247.4725 -138.375 247.8125 C-136.68550553 249.45602183 -135.02251146 251.12689579 -133.375 252.8125 C-118.05203905 266.18968813 -99.47469562 277.92234576 -78.41015625 277.12890625 C-67.10033493 275.94989013 -59.19402348 270.78778499 -51.9765625 262.13671875 C-44.53967961 251.34416919 -43.1333209 238.37203757 -42.75390625 225.609375 C-42.71616592 224.44968201 -42.6784256 223.28998901 -42.63954163 222.09515381 C-42.04406577 200.34852722 -42.26685175 178.57751218 -42.30633545 156.82519531 C-42.31670569 150.49544613 -42.32116195 144.16569279 -42.32617188 137.8359375 C-42.3367832 125.49478093 -42.35376998 113.15364256 -42.375 100.8125 C-42.92766037 100.82360306 -43.48032074 100.83470612 -44.04972839 100.84614563 C-49.80845965 100.95687269 -55.56688796 101.03222184 -61.32641602 101.0871582 C-63.47497849 101.11228285 -65.62345565 101.14638861 -67.77172852 101.18969727 C-70.86235612 101.25043792 -73.95185263 101.27873044 -77.04296875 101.30078125 C-78.00148239 101.32658768 -78.95999603 101.3523941 -79.94755554 101.37898254 C-84.59348411 101.38093085 -86.68192858 101.33867651 -90.48144531 98.45410156 C-93.23072665 94.6187194 -93.01172401 91.9211648 -92.80859375 87.34765625 C-92.375 84.8125 -92.375 84.8125 -90.5 82.1875 C-87.38343886 80.17090162 -85.69771426 79.68869354 -82.01708984 79.69897461 C-80.66591568 79.69908791 -80.66591568 79.69908791 -79.28744507 79.69920349 C-78.31344757 79.70436478 -77.33945007 79.70952606 -76.3359375 79.71484375 C-75.33994537 79.7162587 -74.34395325 79.71767365 -73.31777954 79.71913147 C-70.12848947 79.72474064 -66.93926894 79.7372947 -63.75 79.75 C-61.59114685 79.75501382 -59.43229259 79.75957693 -57.2734375 79.76367188 C-51.9739345 79.77471305 -46.67447222 79.79146012 -41.375 79.8125 C-41.43343709 77.87674792 -41.52104689 75.94186049 -41.62109375 74.0078125 C-41.68961548 72.39156982 -41.68961548 72.39156982 -41.75952148 70.74267578 C-42.10856404 67.72252728 -42.10856404 67.72252728 -44.30004883 65.94628906 C-45.81462801 65.05432216 -47.34697324 64.19221362 -48.890625 63.3515625 C-57.20808314 58.19892334 -61.76555868 48.6091272 -63.953125 39.37109375 C-65.95743485 27.21532568 -63.17399221 16.85618504 -56.0703125 6.87890625 C-41.67093726 -10.67240597 -18.34034611 -12.9674635 0 0 Z M-43.375 16.8125 C-47.50784435 23.23500881 -49.86032725 29.14821141 -48.375 36.8125 C-46.24673203 42.76296351 -43.36368981 47.87406068 -38.375 51.8125 C-37.385 51.8125 -36.395 51.8125 -35.375 51.8125 C-35.375 51.1525 -35.375 50.4925 -35.375 49.8125 C-31.66056654 48.95899966 -28.18438062 48.64929452 -24.375 48.625 C-22.8590625 48.60373047 -22.8590625 48.60373047 -21.3125 48.58203125 C-18.26631131 48.82102744 -16.17366179 49.64792528 -13.375 50.8125 C-9.37479416 51.22088111 -9.37479416 51.22088111 -6.875 48.875 C-2.02020156 42.92787191 0.36064524 37.03732377 0.01171875 29.30078125 C-1.03140894 22.58893944 -4.00773348 17.01296945 -9.375 12.8125 C-20.86689438 5.41753766 -34.38886661 5.33021845 -43.375 16.8125 Z " fill="currentColor" transform="translate(310.375,198.1875)"/>
<path d="M0 0 C3.72550893 2.2014371 4.82538949 3.5396632 6.375 7.625 C7 11 7 11 6 13 C6.86625 12.9175 7.7325 12.835 8.625 12.75 C12.84417957 13.06253182 14.75234357 14.34282656 18 17 C20.34578248 20.19879429 20.47675156 23.10652889 20 27 C18.20006226 29.69990662 16.916227 31.5418865 14 33 C11.6670134 33.04022391 9.33293334 33.04320247 7 33 C6.50930297 36.44850965 6.29275002 39.57295781 7 43 C8.7623712 44.6268575 8.7623712 44.6268575 11 45.8125 C13.25390625 47.1796875 13.25390625 47.1796875 15 49 C15.21484375 52.0078125 15.21484375 52.0078125 14.9375 55.4375 C14.50222601 60.25659696 14.50222601 60.25659696 16.83203125 64.2578125 C19.19687833 66.07866204 19.19687833 66.07866204 21.640625 67.53515625 C24.14644851 69.09092416 25.98885612 70.85508738 28 73 C27.01 74.98 27.01 74.98 26 77 C25.34 77 24.68 77 24 77 C22.25110079 81.59117773 22.25110079 81.59117773 22.6875 86.3125 C26.45052561 91.15067578 32.33294841 91.2433843 38 92 C42.45362409 92.45816405 45.7060735 92.77019435 49.625 90.4375 C51.28358513 87.94913463 51.28358513 87.94913463 51.0625 84.4375 C50.34247483 80.84407517 50.34247483 80.84407517 47.4375 79.25 C46.633125 78.8375 45.82875 78.425 45 78 C45 77.01 45 76.02 45 75 C45.66 75 46.32 75 47 75 C47.26683594 74.46117188 47.53367187 73.92234375 47.80859375 73.3671875 C48.68041428 71.63498015 49.57114264 69.91225354 50.47265625 68.1953125 C50.99730469 67.18210937 51.52195312 66.16890625 52.0625 65.125 C52.85333984 63.61292969 52.85333984 63.61292969 53.66015625 62.0703125 C55.00066875 58.99846753 55.59927357 56.3146507 56 53 C62.75264508 53.96999322 70.02260762 57.62065965 74.5625 62.7734375 C76.15407771 65.52139589 77.18188315 68.47636064 78.3125 71.4375 C79.90383029 74.79697505 81.27324851 76.45381585 83.8125 79.0625 C87.01609734 82.56537183 87.01609734 82.56537183 86.875 86.375 C84.36698137 89.88622608 82.15234236 90.23104771 78 91 C76.93359796 95.82020573 76.93359796 95.82020573 77.99609375 100.5234375 C80.76438991 103.94468461 83.67951084 104.97791767 87.75 106.4375 C88.4409375 106.71787109 89.131875 106.99824219 89.84375 107.28710938 C94.83317535 109.13938664 97.9232418 109.09830835 103 107 C103.66 106.34 104.32 105.68 105 105 C104.6171896 100.9422098 103.84527244 96.98485578 103 93 C107.98229776 91.08373163 112.72684667 90.4452885 118 90 C118.3403125 88.948125 118.3403125 88.948125 118.6875 87.875 C121.91921609 80.79600285 121.91921609 80.79600285 125 79 C133.41362859 78.75406316 142.11457459 82.38000381 150 85 C150 88.54404336 149.39010515 89.10267905 147.125 91.6875 C146.59132813 92.31011719 146.05765625 92.93273437 145.5078125 93.57421875 C144 95 144 95 142 95 C141.60941406 95.87785156 141.60941406 95.87785156 141.2109375 96.7734375 C139.92037175 99.14641323 138.50805862 100.69426901 136.625 102.625 C124.23476444 116.31947088 114.7427611 133.59529068 106.97265625 150.27734375 C106 152 106 152 104 153 C101.75858679 151.86121748 99.64506416 150.67573039 97.5 149.375 C91.77626728 145.94846046 86.00070861 143.00035431 80 140 C87.92 145.28 95.84 150.56 104 156 C102.875 165 102.875 165 100 170 C97.12860184 169.37180677 94.70654226 168.46825952 92.0859375 167.14453125 C77.96476636 160.14905509 63.9234813 155.07503002 48.625 151.3125 C47.86074707 151.12204102 47.09649414 150.93158203 46.30908203 150.73535156 C29.91832452 146.90582901 13.67339452 145.44710986 -3.125 145.5625 C-4.05755615 145.56520905 -4.9901123 145.56791809 -5.95092773 145.57070923 C-21.27500873 145.63792298 -36.00015703 146.63806079 -51 150 C-51.85303711 150.18723633 -52.70607422 150.37447266 -53.58496094 150.56738281 C-69.98387641 154.27490802 -86.22553674 159.55658723 -101.06518555 167.51098633 C-105.7267658 170 -105.7267658 170 -109 170 C-110.32 165.71 -111.64 161.42 -113 157 C-106.53586701 150.91611013 -99.61288733 146.4679293 -92 142 C-94.90265453 140.96548391 -94.90265453 140.96548391 -97.76757812 141.8203125 C-98.6405957 142.46613281 -98.6405957 142.46613281 -99.53125 143.125 C-100.17707031 143.58390625 -100.82289063 144.0428125 -101.48828125 144.515625 C-102.48408203 145.25039063 -102.48408203 145.25039063 -103.5 146 C-104.81446348 146.96989538 -106.13713866 147.92878516 -107.46875 148.875 C-108.34176758 149.52082031 -108.34176758 149.52082031 -109.23242188 150.1796875 C-111 151 -111 151 -113.05859375 150.91601562 C-115.77404189 149.63478305 -116.31018042 148.16036889 -117.59375 145.46875 C-118.06063232 144.5209668 -118.52751465 143.57318359 -119.00854492 142.59667969 C-119.5007251 141.57477539 -119.99290527 140.55287109 -120.5 139.5 C-129.55135362 121.43926842 -141.37535556 105.940316 -155.15234375 91.19140625 C-156.85823324 89.16814197 -157.87483403 87.36989829 -159 85 C-155.25414902 83.96350499 -151.50278991 82.9485563 -147.75 81.9375 C-146.68652344 81.64294922 -145.62304688 81.34839844 -144.52734375 81.04492188 C-143.50253906 80.77099609 -142.47773438 80.49707031 -141.421875 80.21484375 C-140.00793457 79.82993774 -140.00793457 79.82993774 -138.56542969 79.43725586 C-135.93352979 78.98867071 -134.46538319 79.02057768 -132 80 C-130.53515625 81.92578125 -130.53515625 81.92578125 -129.0625 84.3125 C-125.18772009 89.66257904 -120.9740467 90.73250428 -114.6953125 92.1484375 C-113.80585938 92.42945312 -112.91640625 92.71046875 -112 93 C-111 96 -111 96 -112 98.375 C-113.19498574 101.51183758 -113.22943795 102.88542386 -112 106 C-110.11192161 108.16983836 -110.11192161 108.16983836 -107 109 C-99.9541059 108.71266744 -92.76707817 106.01477365 -87 102 C-84.43431955 98.20525108 -85.15423818 95.39796149 -86 91 C-86.56589844 90.84144531 -87.13179688 90.68289062 -87.71484375 90.51953125 C-93.60538117 88.64573991 -93.60538117 88.64573991 -95.375 85.75 C-94.86611516 82.01817781 -93.07675586 80.3878556 -90.55859375 77.68359375 C-87.58061888 74.4667838 -86.05205102 71.17916429 -84.75 67.0625 C-82.37721546 60.56791963 -77.31767574 57.4513115 -71.25 54.625 C-68.49854275 53.44168097 -67.04651755 53 -64 53 C-63.82984375 53.72445312 -63.6596875 54.44890625 -63.484375 55.1953125 C-61.71770995 62.24317837 -59.53708517 67.12006548 -54.6875 72.625 C-53 75 -53 75 -52.9375 77.125 C-54 79 -54 79 -56.5625 80.25 C-59.18732236 81.7003524 -59.18732236 81.7003524 -59.328125 83.96484375 C-59.31396233 85.97948383 -59.16458654 87.9920442 -59 90 C-53.01233695 92.82750755 -47.35287294 91.76643239 -41 91 C-39.89785156 90.88785156 -39.89785156 90.88785156 -38.7734375 90.7734375 C-35.44840249 90.3914122 -33.85941848 89.90627899 -31 88 C-29.71767902 85.32540173 -29.71767902 85.32540173 -30 82 C-31.72022278 79.0840126 -33.77287669 76.54343938 -36 74 C-34.49622998 69.92091125 -32.0907002 68.5082305 -28.4375 66.3125 C-25.03339722 64.40254992 -25.03339722 64.40254992 -22 62 C-22.33145071 59.95802686 -22.66518775 57.91642466 -23 55.875 C-23.34375 52.2890625 -23.34375 52.2890625 -23 49 C-20.85144935 46.70650744 -18.64255327 45.33747086 -15.97265625 43.69921875 C-13.75811777 42.16247975 -13.75811777 42.16247975 -13.62109375 39.58203125 C-13.90803329 37.29714236 -14.31741337 35.19723141 -15 33 C-16.051875 33.103125 -17.10375 33.20625 -18.1875 33.3125 C-22 33 -22 33 -24.875 30.875 C-27.28699018 27.61171917 -28.08108258 26.05412923 -28 22 C-26.48832364 17.94595885 -25.6470909 15.80373508 -21.7265625 13.890625 C-19.49670083 13.14499302 -17.29337177 12.51453854 -15 12 C-14.95875 10.948125 -14.9175 9.89625 -14.875 8.8125 C-13.71885058 3.77499181 -12.16175491 2.88774831 -8 0 C-5.0233079 -1.48834605 -3.18307201 -0.8113713 0 0 Z M-5 19 C-6.77190909 20.35444301 -6.77190909 20.35444301 -8 22 C-7.21869929 24.49552484 -7.21869929 24.49552484 -6 27 C-5.01 27.33 -4.02 27.66 -3 28 C-1.33378575 26.8354799 -1.33378575 26.8354799 0 25 C-0.23043864 22.34533951 -0.23043864 22.34533951 -1 20 C-2.83700789 19.22757731 -2.83700789 19.22757731 -5 19 Z M-5 96 C-6.65 99.96 -8.3 103.92 -10 108 C-14.62 108.33 -19.24 108.66 -24 109 C-23.278125 109.70125 -22.55625 110.4025 -21.8125 111.125 C-21.13960937 111.82109375 -21.13960937 111.82109375 -20.453125 112.53125 C-19.04578369 113.95372401 -17.55456547 115.29166489 -16.0625 116.625 C-13.28384762 121.17188571 -14.18845014 123.78400898 -15.38671875 128.8046875 C-15.58910156 129.52914062 -15.79148437 130.25359375 -16 131 C-15.27296875 130.49726563 -14.5459375 129.99453125 -13.796875 129.4765625 C-10.50715926 127.47742755 -7.72579998 126.00697297 -4 125 C0.5375494 126.2263647 4.15015161 128.33787079 8 131 C7.82339844 130.154375 7.64679688 129.30875 7.46484375 128.4375 C6.90409435 124.78224467 6.59629857 121.68377559 7 118 C9.53405933 114.58719429 12.53330517 112.40573754 16 110 C16 109.67 16 109.34 16 109 C11.05 108.67 6.1 108.34 1 108 C0.67 106.35 0.34 104.7 0 103 C-0.48033053 101.71331149 -0.99787606 100.43949222 -1.5625 99.1875 C-2.036875 98.135625 -2.51125 97.08375 -3 96 C-3.66 96 -4.32 96 -5 96 Z M-54 124 C-54 124.33 -54 124.66 -54 125 C-52.35 125 -50.7 125 -49 125 C-49 124.67 -49 124.34 -49 124 C-50.65 124 -52.3 124 -54 124 Z M42 124 C45.78540329 126.12928935 49.85552796 127.28663773 54 128.5 C54.74950928 128.72067139 55.49901855 128.94134277 56.27124023 129.16870117 C62.44690381 130.93854392 68.62501137 132.17702459 75 133 C71.87079239 130.42743028 68.74388891 128.90063473 65 127.375 C63.96875 126.94960937 62.9375 126.52421875 61.875 126.0859375 C57.10284586 124.28341189 53.38734783 123.88612652 48.25 123.9375 C46.49429688 123.95103516 46.49429688 123.95103516 44.703125 123.96484375 C43.81109375 123.97644531 42.9190625 123.98804688 42 124 Z M-69.5625 127.3125 C-70.51286133 127.63250977 -70.51286133 127.63250977 -71.48242188 127.95898438 C-75.49542818 129.34349222 -79.24458736 131.02681709 -83 133 C-79.07546738 134.30817754 -76.65850607 133.09358141 -72.9375 131.75 C-71.59156092 131.28135826 -70.24520445 130.81391357 -68.8984375 130.34765625 C-68.23811523 130.1170752 -67.57779297 129.88649414 -66.89746094 129.64892578 C-62.97089858 128.30605358 -58.98549652 127.15344958 -55 126 C-55 125.67 -55 125.34 -55 125 C-60.30000022 124.74696773 -64.6112778 125.54384437 -69.5625 127.3125 Z " fill="currentColor" transform="translate(290,15)"/>
<path d="M0 0 C1.25079346 0.20882812 1.25079346 0.20882812 2.52685547 0.421875 C19.78366217 3.40803182 50.33782797 8.83669121 62 23 C61.85546875 25.48046875 61.85546875 25.48046875 61.1875 28.1875 C60.97480469 29.08855469 60.76210938 29.98960937 60.54296875 30.91796875 C60.36378906 31.60503906 60.18460938 32.29210937 60 33 C57 34 57 34 55.21679688 33.3984375 C54.55744141 33.06070313 53.89808594 32.72296875 53.21875 32.375 C52.46916016 32.00149414 51.71957031 31.62798828 50.94726562 31.24316406 C50.13966797 30.83291992 49.33207031 30.42267578 48.5 30 C0.52100482 6.52364675 -55.28754569 3.0656356 -106 20 C-114.13835842 23.00936083 -122.08588514 26.44908335 -130 30 C-131.72768364 30.76733461 -133.45553566 31.53429028 -135.18359375 32.30078125 C-136.45582398 32.86697449 -137.72799822 33.4332937 -139 34 C-141.49505962 31.50494038 -141.35948376 30.32671112 -141.625 26.875 C-141.69976562 25.96492188 -141.77453125 25.05484375 -141.8515625 24.1171875 C-141.90054688 23.41851562 -141.94953125 22.71984375 -142 22 C-136.69097492 18.49697235 -131.36667441 15.57974175 -125.5 13.125 C-124.69393311 12.78766846 -123.88786621 12.45033691 -123.05737305 12.1027832 C-107.70905894 5.88348056 -91.40177912 1.31746531 -75 -1 C-74.30181152 -1.10151367 -73.60362305 -1.20302734 -72.88427734 -1.30761719 C-48.80726971 -4.67065372 -23.93017933 -4.07098193 0 0 Z " fill="currentColor" transform="translate(326,169)"/>
</svg>

